<svg width="150" height="140" viewBox="0 0 150 140" fill="none" xmlns="http://www.w3.org/2000/svg">
<path d="M0.00994478 99.7954C0.0205786 99.8504 0.0373475 99.904 0.0599374 99.9553C0.069936 99.9853 0.0799345 100.025 0.089933 100.055L11.4983 119.812L11.5283 119.842C11.5483 119.872 11.5682 119.902 11.5982 119.942C11.6368 119.984 11.6805 120.021 11.7282 120.052C11.7582 120.072 11.7782 120.102 11.8082 120.122C11.8199 120.13 11.8341 120.134 11.8482 120.132C11.9614 120.196 12.0885 120.23 12.2182 120.232H57.3515L68.5199 139.57L68.5499 139.6C68.5699 139.63 68.5899 139.66 68.6199 139.7C68.6585 139.741 68.7021 139.778 68.7499 139.809C68.7799 139.829 68.7998 139.859 68.8298 139.879C68.8416 139.887 68.8557 139.891 68.8698 139.889C68.983 139.953 69.1101 139.987 69.2398 139.989H137.68C137.813 139.987 137.943 139.953 138.06 139.889L138.15 139.829C138.235 139.773 138.309 139.702 138.37 139.62C138.38 139.6 138.41 139.59 138.42 139.57L149.828 119.812C149.838 119.792 149.838 119.782 149.848 119.762C149.866 119.731 149.879 119.697 149.888 119.662C149.898 119.622 149.908 119.592 149.918 119.552C149.926 119.516 149.93 119.479 149.928 119.442C149.928 119.422 149.938 119.412 149.938 119.392C149.938 119.372 149.928 119.362 149.928 119.342C149.928 119.302 149.918 119.272 149.918 119.233C149.918 119.193 149.898 119.163 149.888 119.123C149.876 119.089 149.863 119.055 149.848 119.023C149.838 119.003 149.838 118.993 149.828 118.973L127.261 79.8883L138.42 60.5511C138.43 60.5311 138.43 60.5211 138.44 60.5011C138.457 60.4697 138.471 60.4361 138.48 60.4011C138.49 60.3611 138.5 60.3311 138.51 60.2912C138.518 60.2551 138.521 60.2181 138.52 60.1812C138.52 60.1612 138.53 60.1512 138.53 60.1312C138.53 60.1112 138.52 60.1012 138.52 60.0812C138.52 60.0412 138.51 60.0112 138.51 59.9712C138.51 59.9312 138.49 59.9012 138.48 59.8612C138.468 59.8272 138.455 59.7938 138.44 59.7612C138.43 59.7412 138.43 59.7312 138.42 59.7112L104.215 0.429937C104.195 0.399941 104.165 0.379944 104.145 0.349949C104.11 0.304574 104.074 0.261177 104.035 0.219968C103.994 0.186635 103.95 0.156548 103.905 0.129981C103.861 0.100746 103.814 0.0772232 103.765 0.0599911C103.706 0.0408616 103.646 0.0274673 103.585 0.019997C103.555 0.019997 103.525 0 103.485 0H80.6681C80.6481 0 80.6381 0.00999852 80.6181 0.00999852C80.5781 0.00999852 80.5481 0.019997 80.5081 0.019997L80.3882 0.0499926C80.3582 0.0599912 80.3182 0.0799883 80.2882 0.0899868C80.2582 0.0999854 80.2582 0.0999853 80.2382 0.109984C80.2268 0.122334 80.2132 0.1325 80.1982 0.139979C80.1658 0.160129 80.1357 0.183585 80.1082 0.209969C80.0791 0.234053 80.0523 0.260835 80.0282 0.289957C80.0082 0.319953 79.9782 0.349949 79.9582 0.379944C79.9459 0.391338 79.9357 0.404892 79.9282 0.419938L57.3615 39.5142H35.0448C35.0248 39.5142 35.0148 39.5242 34.9948 39.5242C34.9548 39.5242 34.9248 39.5342 34.8848 39.5342C34.8448 39.5342 34.8048 39.5542 34.7748 39.5642C34.7408 39.5758 34.7075 39.5891 34.6749 39.6042C34.6549 39.6142 34.6449 39.6142 34.6249 39.6242C34.6049 39.6342 34.6049 39.6442 34.5849 39.6542C34.5525 39.6743 34.5224 39.6978 34.4949 39.7242C34.4658 39.7483 34.439 39.775 34.4149 39.8042C34.3949 39.8342 34.3649 39.8642 34.3449 39.8941C34.3326 39.9055 34.3224 39.9191 34.3149 39.9341L0.0999316 99.2154C0.0853924 99.2472 0.0752991 99.2809 0.069936 99.3154C0.0487471 99.3672 0.0320221 99.4208 0.0199433 99.4754C0.00407223 99.5272 -0.00269386 99.5813 -5.37512e-05 99.6354C-0.00170921 99.6889 0.00163817 99.7425 0.00994478 99.7954ZM102.995 1.69975L136.24 59.2813H115.383L82.1279 1.69975H102.995ZM114.403 98.7955H93.5362L115.373 60.9611H136.24L114.403 98.7955ZM80.6681 2.53963L113.913 60.1212L92.0764 97.9556L81.648 79.8783L92.8163 60.5411C92.8263 60.5211 92.8263 60.5111 92.8363 60.4911C92.8539 60.4597 92.8673 60.4261 92.8763 60.3911C92.8863 60.3511 92.8963 60.3211 92.9063 60.2812C92.9146 60.2451 92.918 60.2081 92.9163 60.1712C92.9163 60.1512 92.9263 60.1412 92.9263 60.1212C92.9263 60.1012 92.9163 60.0912 92.9163 60.0712C92.9163 60.0312 92.9063 60.0012 92.9063 59.9612C92.9063 59.9212 92.8863 59.8912 92.8763 59.8512C92.8647 59.8172 92.8514 59.7838 92.8363 59.7512C92.8263 59.7312 92.8263 59.7212 92.8163 59.7012L81.398 39.9441C81.378 39.9141 81.348 39.8941 81.328 39.8642C81.2938 39.8188 81.2571 39.7754 81.218 39.7342C81.1771 39.7008 81.1336 39.6707 81.088 39.6442C81.0435 39.6169 80.9966 39.5935 80.9481 39.5742C80.8935 39.5546 80.836 39.5444 80.7781 39.5442C80.7481 39.5442 80.7081 39.5242 80.6781 39.5242H59.3212L80.6681 2.53963ZM57.8615 41.214H80.1882L90.6266 59.2813H46.9431L36.5046 41.214H57.8615ZM35.0448 42.0538L45.4733 60.1212L12.2282 117.703L1.79968 99.6354L35.0448 42.0538ZM13.6979 118.543L46.9431 60.9611H90.6266L80.1882 79.0384H57.8615C57.8415 79.0384 57.8315 79.0484 57.8115 79.0484C57.7715 79.0484 57.7415 79.0584 57.7015 79.0584L57.5815 79.0884C57.5515 79.0984 57.5115 79.1184 57.4815 79.1284C57.4515 79.1384 57.4515 79.1384 57.4315 79.1484C57.4201 79.1607 57.4066 79.1709 57.3915 79.1784C57.3592 79.1985 57.329 79.222 57.3015 79.2484C57.2724 79.2725 57.2456 79.2992 57.2215 79.3284C57.2015 79.3584 57.1716 79.3884 57.1516 79.4184C57.1416 79.4283 57.1216 79.4383 57.1216 79.4583L45.7132 99.2154C45.6987 99.2472 45.6886 99.2809 45.6832 99.3154C45.6621 99.3672 45.6453 99.4208 45.6332 99.4754C45.6246 99.5283 45.6213 99.5819 45.6233 99.6354C45.6216 99.6889 45.6249 99.7425 45.6332 99.7954C45.6439 99.8504 45.6606 99.9041 45.6832 99.9553C45.6932 99.9853 45.7032 100.025 45.7132 100.055L56.3917 118.543H13.6979ZM137.22 138.3H70.7296L81.158 120.232H147.648L137.22 138.3ZM69.2698 137.46L47.433 99.6354L57.8715 81.558L79.7083 119.382L69.2698 137.46ZM147.648 118.543H81.158L59.3212 80.7182H80.1882L91.3565 100.055L91.3865 100.085C91.4064 100.121 91.4299 100.154 91.4565 100.185C91.4951 100.227 91.5388 100.264 91.5865 100.295C91.6165 100.315 91.6365 100.345 91.6665 100.365C91.6782 100.373 91.6924 100.377 91.7065 100.375C91.8197 100.439 91.9468 100.473 92.0764 100.475H114.893C115.026 100.473 115.156 100.439 115.273 100.375L115.363 100.315C115.448 100.259 115.522 100.188 115.583 100.105C115.593 100.085 115.623 100.075 115.633 100.055L126.311 81.558L147.648 118.543Z" fill="white"/>
</svg>
