<svg width="140" height="122" viewBox="0 0 140 122" fill="none" xmlns="http://www.w3.org/2000/svg">
<path d="M0.0200588 108.188C0.0321975 108.24 0.0489143 108.29 0.0700318 108.338C0.0754739 108.37 0.0855822 108.4 0.100022 108.428L7.37788 121.046L7.40787 121.076C7.42801 121.108 7.45147 121.138 7.47785 121.166C7.51784 121.206 7.55782 121.236 7.59781 121.276C7.6278 121.296 7.63781 121.326 7.6678 121.336C7.67953 121.344 7.69367 121.347 7.70777 121.346C7.81632 121.401 7.93582 121.432 8.05767 121.436H131.891C132.013 121.432 132.133 121.401 132.241 121.346C132.271 121.326 132.291 121.306 132.321 121.286C132.402 121.235 132.47 121.167 132.521 121.086C132.531 121.066 132.551 121.056 132.571 121.036L139.859 108.418C139.869 108.408 139.869 108.388 139.879 108.378C139.898 108.348 139.912 108.314 139.919 108.278C139.929 108.248 139.939 108.208 139.949 108.178C139.957 108.146 139.96 108.112 139.959 108.078C139.959 108.058 139.969 108.048 139.969 108.028C139.969 108.008 139.959 107.998 139.959 107.979C139.959 107.959 139.949 107.909 139.949 107.879C139.949 107.849 139.929 107.809 139.919 107.779C139.908 107.744 139.895 107.711 139.879 107.679C139.869 107.669 139.869 107.649 139.859 107.639L77.9471 0.389922C77.9296 0.364534 77.9095 0.341074 77.8871 0.319936C77.8558 0.275342 77.8189 0.235011 77.7771 0.19996C77.6987 0.142233 77.6151 0.0920204 77.5272 0.0499893C77.4751 0.0342779 77.4215 0.0242221 77.3673 0.0199955C77.3373 0.0199955 77.3073 0 77.2673 0H62.7016C62.6816 0 62.6716 0.00999728 62.6516 0.00999728C62.6316 0.00999728 62.5816 0.0199955 62.5516 0.0199955L62.4416 0.0499893C62.4073 0.0606946 62.3739 0.074066 62.3417 0.0899813C62.33 0.0979334 62.3158 0.101476 62.3017 0.0999795C62.2903 0.112329 62.2767 0.122494 62.2617 0.129973C62.2333 0.147517 62.2065 0.167595 62.1817 0.189962C62.1526 0.214044 62.1258 0.240825 62.1017 0.269946C62.0817 0.29994 62.0618 0.319936 62.0418 0.34993C62.0294 0.361323 62.0193 0.374876 62.0118 0.389922L0.090015 107.649C0.0755754 107.677 0.0654671 107.707 0.060025 107.739C0.0388923 107.787 0.0221751 107.837 0.0100519 107.889C0.00174567 107.938 -0.001613 107.988 4.51313e-05 108.038C0.0100422 108.088 0.0100617 108.138 0.0200588 108.188ZM76.8174 1.56969L137.829 107.249H31.2808L37.659 96.2108H117.345C117.469 96.2098 117.59 96.1753 117.695 96.1109C117.705 96.1009 117.725 96.1109 117.735 96.1009C117.761 96.0834 117.784 96.0633 117.805 96.0409C117.848 96.007 117.888 95.9702 117.925 95.9309C117.955 95.8933 117.982 95.8531 118.005 95.8109C118.035 95.7729 118.056 95.7284 118.065 95.6809C118.086 95.6301 118.096 95.5758 118.095 95.521C118.095 95.491 118.115 95.461 118.115 95.421C118.115 95.401 118.105 95.391 118.105 95.371C118.1 95.3202 118.09 95.27 118.075 95.221C118.063 95.1697 118.046 95.1195 118.025 95.0711C118.015 95.0611 118.015 95.0411 118.005 95.0311L64.0512 1.56969H76.8174ZM131.451 119.866H9.42726L62.7016 27.5845L69.0797 38.6223L29.2314 107.639C29.2235 107.65 29.2199 107.664 29.2214 107.679C29.2003 107.727 29.1836 107.777 29.1714 107.829C29.1567 107.877 29.1466 107.928 29.1415 107.979C29.1415 107.998 29.1315 108.008 29.1315 108.028C29.1315 108.048 29.1515 108.088 29.1515 108.128C29.1566 108.183 29.1666 108.236 29.1814 108.288C29.2014 108.338 29.2214 108.378 29.2414 108.418C29.2658 108.46 29.2925 108.5 29.3214 108.538C29.3614 108.578 29.4014 108.608 29.4414 108.648C29.4714 108.668 29.4814 108.698 29.5114 108.708C29.5214 108.718 29.5413 108.708 29.5513 108.718C29.6592 108.777 29.7787 108.811 29.9012 108.818H137.809L131.451 119.866ZM101.41 94.6412H38.5587L69.9894 40.202L101.41 94.6412ZM62.7016 2.35953L115.976 94.6412H103.23L63.3914 25.6249C63.379 25.6135 63.3689 25.6 63.3614 25.5849C63.3314 25.5449 63.2914 25.5049 63.2614 25.4649C63.2261 25.4264 63.1857 25.3927 63.1414 25.3649C63.1301 25.3526 63.1165 25.3424 63.1014 25.335C63.0731 25.3205 63.0428 25.3104 63.0115 25.305C62.9631 25.2838 62.9129 25.2671 62.8615 25.255C62.762 25.2416 62.6612 25.2416 62.5616 25.255C62.5102 25.2671 62.46 25.2838 62.4116 25.305C62.3803 25.3104 62.35 25.3205 62.3217 25.335C62.3103 25.3473 62.2968 25.3575 62.2817 25.3649C62.2417 25.3949 62.2017 25.4349 62.1617 25.4649C62.1204 25.4975 62.0864 25.5384 62.0618 25.5849C62.0494 25.5963 62.0393 25.6099 62.0318 25.6249L8.07768 119.086L1.69956 108.048L62.7016 2.35953Z" fill="white"/>
</svg>
