<svg width="122" height="140" viewBox="0 0 122 140" fill="none" xmlns="http://www.w3.org/2000/svg">
<path d="M121.219 34.9945L100.522 23.0463L81.3158 34.1346V11.9481L60.6094 0L39.913 11.9481V34.1246L20.7064 23.0364L0 34.9945V58.9007L19.2067 69.9889L0 81.0772V104.983L20.6964 116.931L39.903 105.843V128.02L60.5994 139.968L81.2957 128.02V105.843L100.502 116.931L121.219 104.983V81.0772L102.012 69.9889L121.219 58.9007V34.9945ZM100.522 24.7661L118.989 35.4244L81.4357 57.1709L81.3158 35.8543L100.522 24.7661ZM79.826 36.7142L79.946 58.0408L61.3593 68.8091V24.3361L79.826 13.6778V36.7142ZM41.4028 13.6778L59.8596 24.3361V68.8091L41.4028 58.1208V13.6778ZM20.6964 24.7661L39.903 35.8543V57.2409L2.23966 35.4244L20.6964 24.7661ZM1.48979 58.0408V36.7242L39.1632 58.5407L20.7064 69.1291L1.48979 58.0408ZM1.48979 104.124V82.8069L19.9465 93.4652V114.782L1.48979 104.124ZM2.23966 81.5071L21.0763 70.6388L40.6629 59.4006L59.1196 70.0889L20.7064 92.1654L2.23966 81.5071ZM59.8596 137.818L41.4028 127.16V104.983L59.8596 94.3251V137.818ZM41.4028 103.264L40.283 103.914L21.4463 114.792V93.4752L59.8596 71.3987V92.6053L41.4028 103.264ZM60.6094 23.0463L42.1526 12.388L60.6094 1.72973L79.0662 12.388L60.6094 23.0463ZM79.816 127.16L61.3593 137.818V94.3251L79.816 104.983V127.16ZM99.7726 114.782L80.9358 103.904L79.816 103.254L61.3593 92.5953V71.3887L99.7726 93.4652V114.782ZM119.729 104.124L101.272 114.782V93.2852L119.729 82.7969V104.124ZM118.969 81.5071L100.362 92.0854L62.0992 70.0989L80.6859 59.3306L99.0327 69.9889L99.6526 70.3489L100.023 70.5688L100.142 70.6388L118.969 81.5071ZM119.729 58.0408L100.522 69.1291L82.1856 58.4707L119.739 36.7242V58.0408H119.729Z" fill="white"/>
</svg>
