<svg width="140" height="122" viewBox="0 0 140 122" fill="none" xmlns="http://www.w3.org/2000/svg">
<path d="M116.539 101.364C116.549 101.354 116.549 101.334 116.559 101.324C116.578 101.293 116.592 101.26 116.599 101.224C116.609 101.194 116.619 101.154 116.629 101.124C116.637 101.091 116.641 101.058 116.639 101.024C116.639 101.004 116.649 100.994 116.649 100.974C116.649 100.954 116.639 100.944 116.639 100.924C116.639 100.904 116.629 100.854 116.629 100.824C116.629 100.794 116.609 100.754 116.599 100.724C116.588 100.69 116.575 100.656 116.559 100.624C116.549 100.614 116.549 100.594 116.539 100.584L105.323 81.1592H127.745C127.867 81.1554 127.986 81.1247 128.095 81.0692C128.125 81.0492 128.145 81.0292 128.175 81.0092C128.256 80.9584 128.324 80.8901 128.375 80.8093C128.385 80.7893 128.405 80.7793 128.425 80.7593L139.781 61.0943C139.791 61.0843 139.791 61.0643 139.801 61.0543C139.82 61.0237 139.833 60.9898 139.841 60.9544C139.851 60.9244 139.861 60.8844 139.871 60.8544C139.879 60.8218 139.882 60.7881 139.881 60.7544C139.881 60.7344 139.891 60.7244 139.891 60.7044C139.891 60.6844 139.881 60.6744 139.881 60.6544C139.881 60.6345 139.871 60.5845 139.871 60.5545C139.871 60.5245 139.851 60.4845 139.841 60.4545C139.83 60.4202 139.817 60.3868 139.801 60.3545C139.791 60.3445 139.791 60.3245 139.781 60.3145L128.425 40.6496C128.407 40.6242 128.387 40.6007 128.365 40.5796C128.334 40.5348 128.297 40.4944 128.255 40.4596C128.213 40.4273 128.17 40.3973 128.125 40.3697C128.084 40.3437 128.041 40.3235 127.995 40.3097C127.944 40.2901 127.89 40.2799 127.835 40.2797C127.805 40.2797 127.775 40.2597 127.745 40.2597H105.323L116.539 20.8347C116.549 20.8247 116.549 20.8047 116.559 20.7947C116.578 20.764 116.592 20.7302 116.599 20.6947C116.609 20.6647 116.619 20.6247 116.629 20.5947C116.637 20.5621 116.641 20.5284 116.639 20.4947C116.639 20.4748 116.649 20.4648 116.649 20.4448C116.649 20.4248 116.639 20.4148 116.639 20.3948C116.639 20.3748 116.629 20.3248 116.629 20.2948C116.629 20.2648 116.609 20.2248 116.599 20.1948C116.588 20.1605 116.575 20.1271 116.559 20.0948C116.549 20.0849 116.549 20.0649 116.539 20.0549L105.193 0.3899C105.176 0.364514 105.155 0.341055 105.133 0.319919C105.103 0.277549 105.069 0.237452 105.033 0.199949C104.991 0.167634 104.948 0.137598 104.903 0.109972C104.863 0.0840464 104.819 0.0638576 104.773 0.0499874C104.722 0.030413 104.668 0.0202518 104.613 0.0199953C104.583 0.0199953 104.553 0 104.523 0H81.8212C81.8012 0 81.7912 0.00999767 81.7712 0.00999767C81.7512 0.00999767 81.7012 0.0199953 81.6712 0.0199953L81.5613 0.0499874C81.5296 0.0590472 81.4992 0.0725081 81.4712 0.0899771C81.4595 0.0979288 81.4454 0.101471 81.4313 0.0999748L81.4013 0.129967C81.3729 0.147478 81.3462 0.167557 81.3214 0.189952C81.2923 0.214033 81.2654 0.240812 81.2413 0.269931C81.2214 0.299924 81.2014 0.319918 81.1814 0.349911C81.1691 0.361303 81.1589 0.374855 81.1514 0.3899L69.9354 19.8149L58.7194 0.3899C58.7019 0.364514 58.6818 0.341055 58.6593 0.319919C58.6255 0.277486 58.5887 0.237403 58.5494 0.199949C58.5118 0.169875 58.4717 0.143115 58.4294 0.119969C58.3891 0.0940432 58.3454 0.0738553 58.2995 0.059985C58.2487 0.0395255 58.1943 0.0293322 58.1395 0.029993C58.1095 0.029993 58.0796 0.00999767 58.0496 0.00999767H35.3476C35.3276 0.00999767 35.3176 0.0199953 35.2976 0.0199953C35.2776 0.0199953 35.2276 0.029993 35.1977 0.029993L35.0877 0.059985C35.056 0.0690449 35.0256 0.0825058 34.9977 0.0999748C34.9859 0.107926 34.9718 0.111468 34.9578 0.109972C34.9464 0.122321 34.9328 0.132485 34.9177 0.139964C34.8893 0.157475 34.8626 0.177554 34.8378 0.199949C34.8087 0.22403 34.7818 0.250809 34.7578 0.279929C34.7378 0.309921 34.7178 0.329916 34.6978 0.359908C34.6855 0.371301 34.6753 0.384853 34.6678 0.399898L23.3218 20.0649C23.3074 20.0932 23.2973 20.1235 23.2918 20.1548C23.2707 20.2032 23.2539 20.2534 23.2418 20.3048C23.2285 20.4043 23.2285 20.5052 23.2418 20.6047C23.2539 20.6561 23.2707 20.7063 23.2918 20.7547C23.2973 20.786 23.3074 20.8163 23.3218 20.8447L34.5379 40.2697H12.1158C12.0958 40.2697 12.0858 40.2797 12.0658 40.2797C12.0458 40.2797 11.9959 40.2897 11.9659 40.2897L11.8559 40.3197C11.8242 40.3287 11.7938 40.3422 11.7659 40.3597C11.7559 40.3697 11.736 40.3697 11.726 40.3796L11.6959 40.4096C11.6675 40.4272 11.6408 40.4472 11.616 40.4696C11.5869 40.4937 11.56 40.5205 11.536 40.5496C11.516 40.5796 11.496 40.5996 11.4761 40.6296C11.4637 40.641 11.4535 40.6545 11.446 40.6696L0.0900553 60.3345C0.0756165 60.3629 0.0654783 60.3932 0.0600366 60.4245C0.0389051 60.4729 0.0221278 60.5231 0.0100054 60.5745C-0.00333514 60.674 -0.00333514 60.7749 0.0100054 60.8744C0.0221278 60.9258 0.0389051 60.976 0.0600366 61.0244C0.0654783 61.0557 0.0756165 61.086 0.0900553 61.1143L11.446 80.7793L11.4761 80.8093C11.4962 80.8416 11.5196 80.8717 11.546 80.8993C11.586 80.9392 11.6259 80.9692 11.6659 81.0092C11.6959 81.0292 11.706 81.0592 11.736 81.0692C11.7477 81.0772 11.7618 81.0807 11.7759 81.0792C11.8844 81.1347 12.0039 81.1654 12.1257 81.1692H34.5479L23.3419 100.594C23.3274 100.623 23.3173 100.653 23.3118 100.684C23.2907 100.733 23.2739 100.783 23.2618 100.834C23.2485 100.934 23.2485 101.035 23.2618 101.134C23.2739 101.185 23.2907 101.236 23.3118 101.284C23.3173 101.315 23.3274 101.346 23.3419 101.374L34.6878 121.039L34.7178 121.069C34.738 121.101 34.7614 121.131 34.7878 121.159C34.8278 121.199 34.8677 121.229 34.9077 121.269C34.9377 121.289 34.9478 121.319 34.9778 121.329C34.9895 121.337 35.0036 121.34 35.0177 121.339C35.1262 121.394 35.2457 121.425 35.3675 121.429H58.0696C58.1914 121.425 58.3109 121.394 58.4194 121.339C58.4494 121.319 58.4694 121.299 58.4994 121.279C58.5802 121.228 58.6486 121.16 58.6994 121.079C58.7094 121.059 58.7293 121.049 58.7493 121.029L69.9654 101.604L81.1814 121.029L81.2114 121.059C81.2316 121.091 81.255 121.121 81.2814 121.149C81.3214 121.189 81.3613 121.219 81.4013 121.259C81.4313 121.279 81.4413 121.309 81.4712 121.319C81.483 121.327 81.4972 121.33 81.5113 121.329C81.6198 121.384 81.7393 121.415 81.8611 121.419H104.563C104.685 121.415 104.804 121.384 104.913 121.329C104.943 121.309 104.963 121.289 104.993 121.269C105.074 121.218 105.142 121.15 105.193 121.069C105.203 121.049 105.223 121.039 105.243 121.019L116.539 101.364ZM104.053 119.849H83.1607L93.607 101.754H114.5L104.053 119.849ZM57.5698 119.849H36.6771L59.0192 81.1592H79.9119L57.5698 119.849ZM13.4353 79.5796L23.8816 61.4842H68.5559L58.1095 79.5796H13.4353ZM12.0758 42.6091L22.5221 60.7044L12.0758 78.7998L1.62943 60.7044L12.0758 42.6091ZM24.8712 20.4348L35.3176 2.3394L57.6597 41.0295L47.2134 59.1248L24.8712 20.4348ZM81.8112 2.3494L92.2575 20.4448L69.9254 59.1348L59.479 41.0395L81.8112 2.3494ZM104.053 1.5596L114.5 19.655H93.607L83.1607 1.5596H104.053ZM127.305 41.8293L137.751 59.9246H93.0773L82.6309 41.8293H127.305ZM81.2614 42.6091L91.2478 59.9146H71.2649L81.2614 42.6091ZM68.5559 59.9146H48.5729L58.5594 42.6091L68.5559 59.9146ZM69.9154 62.274L79.9018 79.5796H59.9189L69.9154 62.274ZM71.2749 61.4942H92.1575L114.49 100.184H93.597L71.2749 61.4942ZM93.9768 61.4942H137.741L127.295 79.5896H104.413L93.9768 61.4942ZM82.6309 40.2497L93.617 21.2246H114.51L103.524 40.2497H82.6309ZM58.5594 39.4699L36.6771 1.5596H57.5698L69.0157 21.3745L58.5594 39.4699ZM45.8439 59.9146H23.8716L13.4253 41.8193H35.3975L45.8439 59.9146ZM57.1999 81.1592L35.3176 119.069L24.8712 100.974L36.3073 81.1592H57.1999ZM81.2614 81.939L92.2475 100.964L81.8012 119.059L70.8151 100.024L81.2614 81.939Z" fill="white"/>
</svg>
